<mxfile host="app.diagrams.net" agent="Mozilla/5.0 (Windows NT 10.0; Win64; x64; rv:136.0) Gecko/20100101 Firefox/136.0" version="26.1.0">
  <diagram name="Page-1" id="Rtpmcs6XzueIlHcYKe7i">
    <mxGraphModel dx="3000" dy="1514" grid="1" gridSize="10" guides="1" tooltips="1" connect="1" arrows="1" fold="1" page="1" pageScale="1" pageWidth="850" pageHeight="1100" math="0" shadow="0">
      <root>
        <mxCell id="0" />
        <mxCell id="1" parent="0" />
        <mxCell id="cCHqKQHDYc9K1tutN7BA-16" style="edgeStyle=orthogonalEdgeStyle;rounded=0;orthogonalLoop=1;jettySize=auto;html=1;exitX=0.5;exitY=0;exitDx=0;exitDy=0;dashed=1;endArrow=open;endFill=0;" edge="1" parent="1" source="cCHqKQHDYc9K1tutN7BA-1" target="cCHqKQHDYc9K1tutN7BA-12">
          <mxGeometry relative="1" as="geometry">
            <mxPoint x="425" y="340" as="targetPoint" />
          </mxGeometry>
        </mxCell>
        <mxCell id="cCHqKQHDYc9K1tutN7BA-1" value="&lt;p style=&quot;margin:0px;margin-top:4px;text-align:center;&quot;&gt;&lt;i&gt;&amp;lt;&amp;lt;Interface&amp;gt;&amp;gt;&lt;/i&gt;&lt;br&gt;&lt;b&gt;ICharacterBuilder&lt;/b&gt;&lt;/p&gt;&lt;hr size=&quot;1&quot;&gt;&lt;br&gt;&lt;hr size=&quot;1&quot;&gt;&lt;p style=&quot;margin:0px;margin-left:4px;&quot;&gt;+ Reset(): void &amp;nbsp;&lt;br&gt;+ SetName(name: string): ICharacterBuilder &amp;nbsp;&lt;br&gt;+ SetHealth(health: int): ICharacterBuilder &amp;nbsp;&lt;br&gt;+ SetMana(mana: int): ICharacterBuilder &amp;nbsp;&lt;br&gt;+ SetStrength(strength: int): ICharacterBuilder &amp;nbsp;&lt;br&gt;+ SetIntelligence(intelligence: int): ICharacterBuilder &amp;nbsp;&lt;br&gt;+ SetDexterity(dexterity: int): ICharacterBuilder &amp;nbsp;&lt;br&gt;+ SetRace(race: string): ICharacterBuilder &amp;nbsp;&lt;br&gt;+ GiveItem(item: string): ICharacterBuilder &amp;nbsp;&lt;br&gt;+ PerformDeed(deed: string): ICharacterBuilder &amp;nbsp;&lt;br&gt;+ GetCharacter(): Character &amp;nbsp;&lt;br&gt;&lt;br&gt;&lt;/p&gt;" style="verticalAlign=top;align=left;overflow=fill;fontSize=12;fontFamily=Helvetica;html=1;" vertex="1" parent="1">
          <mxGeometry x="280" y="390" width="291" height="240" as="geometry" />
        </mxCell>
        <mxCell id="cCHqKQHDYc9K1tutN7BA-11" style="edgeStyle=orthogonalEdgeStyle;rounded=0;orthogonalLoop=1;jettySize=auto;html=1;exitX=0.5;exitY=0;exitDx=0;exitDy=0;entryX=0.5;entryY=1;entryDx=0;entryDy=0;dashed=1;endArrow=block;endFill=0;" edge="1" parent="1" source="cCHqKQHDYc9K1tutN7BA-2" target="cCHqKQHDYc9K1tutN7BA-1">
          <mxGeometry relative="1" as="geometry" />
        </mxCell>
        <mxCell id="cCHqKQHDYc9K1tutN7BA-2" value="EnemyBuilder" style="swimlane;fontStyle=1;align=center;verticalAlign=top;childLayout=stackLayout;horizontal=1;startSize=26;horizontalStack=0;resizeParent=1;resizeParentMax=0;resizeLast=0;collapsible=1;marginBottom=0;fontSize=12;" vertex="1" parent="1">
          <mxGeometry x="580" y="690" width="270" height="230" as="geometry">
            <mxRectangle x="-60" y="370" width="140" height="30" as="alternateBounds" />
          </mxGeometry>
        </mxCell>
        <mxCell id="cCHqKQHDYc9K1tutN7BA-3" value="- enemy: Character" style="text;strokeColor=none;fillColor=none;align=left;verticalAlign=top;spacingLeft=4;spacingRight=4;overflow=hidden;rotatable=0;points=[[0,0.5],[1,0.5]];portConstraint=eastwest;fontSize=12;" vertex="1" parent="cCHqKQHDYc9K1tutN7BA-2">
          <mxGeometry y="26" width="270" height="24" as="geometry" />
        </mxCell>
        <mxCell id="cCHqKQHDYc9K1tutN7BA-4" value="" style="line;strokeWidth=1;fillColor=none;align=left;verticalAlign=middle;spacingTop=-1;spacingLeft=3;spacingRight=3;rotatable=0;labelPosition=right;points=[];portConstraint=eastwest;strokeColor=inherit;fontSize=16;" vertex="1" parent="cCHqKQHDYc9K1tutN7BA-2">
          <mxGeometry y="50" width="270" height="8" as="geometry" />
        </mxCell>
        <mxCell id="cCHqKQHDYc9K1tutN7BA-5" value="+ Reset(): void  &#xa;+ SetName(name: string): ICharacterBuilder  &#xa;+ SetHealth(health: int): ICharacterBuilder  &#xa;+ SetMana(mana: int): ICharacterBuilder  &#xa;+ SetStrength(strength: int): ICharacterBuilder  &#xa;+ SetIntelligence(intelligence: int): ICharacterBuilder  &#xa;+ SetDexterity(dexterity: int): ICharacterBuilder  &#xa;+ SetRace(race: string): ICharacterBuilder  &#xa;+ GiveItem(item: string): ICharacterBuilder  &#xa;+ PerformDeed(deed: string): ICharacterBuilder&#xa;- PerformGoodDeed(deed: string): void+ GetCharacter(): Character  " style="text;strokeColor=none;fillColor=none;align=left;verticalAlign=top;spacingLeft=4;spacingRight=4;overflow=hidden;rotatable=0;points=[[0,0.5],[1,0.5]];portConstraint=eastwest;fontSize=12;" vertex="1" parent="cCHqKQHDYc9K1tutN7BA-2">
          <mxGeometry y="58" width="270" height="172" as="geometry" />
        </mxCell>
        <mxCell id="cCHqKQHDYc9K1tutN7BA-10" style="edgeStyle=orthogonalEdgeStyle;rounded=0;orthogonalLoop=1;jettySize=auto;html=1;exitX=0.5;exitY=0;exitDx=0;exitDy=0;entryX=0.5;entryY=1;entryDx=0;entryDy=0;dashed=1;endArrow=block;endFill=0;" edge="1" parent="1" source="cCHqKQHDYc9K1tutN7BA-6" target="cCHqKQHDYc9K1tutN7BA-1">
          <mxGeometry relative="1" as="geometry" />
        </mxCell>
        <mxCell id="cCHqKQHDYc9K1tutN7BA-6" value="Hero" style="swimlane;fontStyle=1;align=center;verticalAlign=top;childLayout=stackLayout;horizontal=1;startSize=26;horizontalStack=0;resizeParent=1;resizeParentMax=0;resizeLast=0;collapsible=1;marginBottom=0;fontSize=12;" vertex="1" parent="1">
          <mxGeometry x="10" y="690" width="270" height="230" as="geometry">
            <mxRectangle x="-60" y="370" width="140" height="30" as="alternateBounds" />
          </mxGeometry>
        </mxCell>
        <mxCell id="cCHqKQHDYc9K1tutN7BA-7" value="- hero: Character" style="text;strokeColor=none;fillColor=none;align=left;verticalAlign=top;spacingLeft=4;spacingRight=4;overflow=hidden;rotatable=0;points=[[0,0.5],[1,0.5]];portConstraint=eastwest;fontSize=12;" vertex="1" parent="cCHqKQHDYc9K1tutN7BA-6">
          <mxGeometry y="26" width="270" height="24" as="geometry" />
        </mxCell>
        <mxCell id="cCHqKQHDYc9K1tutN7BA-8" value="" style="line;strokeWidth=1;fillColor=none;align=left;verticalAlign=middle;spacingTop=-1;spacingLeft=3;spacingRight=3;rotatable=0;labelPosition=right;points=[];portConstraint=eastwest;strokeColor=inherit;fontSize=16;" vertex="1" parent="cCHqKQHDYc9K1tutN7BA-6">
          <mxGeometry y="50" width="270" height="8" as="geometry" />
        </mxCell>
        <mxCell id="cCHqKQHDYc9K1tutN7BA-9" value="+ Reset(): void  &#xa;+ SetName(name: string): ICharacterBuilder  &#xa;+ SetHealth(health: int): ICharacterBuilder  &#xa;+ SetMana(mana: int): ICharacterBuilder  &#xa;+ SetStrength(strength: int): ICharacterBuilder  &#xa;+ SetIntelligence(intelligence: int): ICharacterBuilder  &#xa;+ SetDexterity(dexterity: int): ICharacterBuilder  &#xa;+ SetRace(race: string): ICharacterBuilder  &#xa;+ GiveItem(item: string): ICharacterBuilder  &#xa;+ PerformDeed(deed: string): ICharacterBuilder&#xa;- PerformGoodDeed(deed: string): void+ GetCharacter(): Character  " style="text;strokeColor=none;fillColor=none;align=left;verticalAlign=top;spacingLeft=4;spacingRight=4;overflow=hidden;rotatable=0;points=[[0,0.5],[1,0.5]];portConstraint=eastwest;fontSize=12;" vertex="1" parent="cCHqKQHDYc9K1tutN7BA-6">
          <mxGeometry y="58" width="270" height="172" as="geometry" />
        </mxCell>
        <mxCell id="cCHqKQHDYc9K1tutN7BA-12" value="Character" style="swimlane;fontStyle=1;align=center;verticalAlign=top;childLayout=stackLayout;horizontal=1;startSize=26;horizontalStack=0;resizeParent=1;resizeParentMax=0;resizeLast=0;collapsible=1;marginBottom=0;fontSize=12;" vertex="1" parent="1">
          <mxGeometry x="320" y="120" width="210" height="200" as="geometry">
            <mxRectangle x="-60" y="370" width="140" height="30" as="alternateBounds" />
          </mxGeometry>
        </mxCell>
        <mxCell id="cCHqKQHDYc9K1tutN7BA-13" value="+ Name: string  &#xa;+ Health: int  &#xa;+ Mana: int  &#xa;+ Strength: int  &#xa;+ Intelligence: int  &#xa;+ Dexterity: int  &#xa;+ Race: string  &#xa;+ Items: List&lt;string&gt;  &#xa;+ Deeds: List&lt;string&gt; " style="text;strokeColor=none;fillColor=none;align=left;verticalAlign=top;spacingLeft=4;spacingRight=4;overflow=hidden;rotatable=0;points=[[0,0.5],[1,0.5]];portConstraint=eastwest;fontSize=12;" vertex="1" parent="cCHqKQHDYc9K1tutN7BA-12">
          <mxGeometry y="26" width="210" height="134" as="geometry" />
        </mxCell>
        <mxCell id="cCHqKQHDYc9K1tutN7BA-14" value="" style="line;strokeWidth=1;fillColor=none;align=left;verticalAlign=middle;spacingTop=-1;spacingLeft=3;spacingRight=3;rotatable=0;labelPosition=right;points=[];portConstraint=eastwest;strokeColor=inherit;fontSize=16;" vertex="1" parent="cCHqKQHDYc9K1tutN7BA-12">
          <mxGeometry y="160" width="210" height="8" as="geometry" />
        </mxCell>
        <mxCell id="cCHqKQHDYc9K1tutN7BA-15" value="+ ToString(): string" style="text;strokeColor=none;fillColor=none;align=left;verticalAlign=top;spacingLeft=4;spacingRight=4;overflow=hidden;rotatable=0;points=[[0,0.5],[1,0.5]];portConstraint=eastwest;fontSize=12;" vertex="1" parent="cCHqKQHDYc9K1tutN7BA-12">
          <mxGeometry y="168" width="210" height="32" as="geometry" />
        </mxCell>
        <mxCell id="cCHqKQHDYc9K1tutN7BA-21" style="edgeStyle=orthogonalEdgeStyle;rounded=0;orthogonalLoop=1;jettySize=auto;html=1;entryX=1;entryY=0.5;entryDx=0;entryDy=0;dashed=1;endArrow=open;endFill=0;" edge="1" parent="1" source="cCHqKQHDYc9K1tutN7BA-17" target="cCHqKQHDYc9K1tutN7BA-1">
          <mxGeometry relative="1" as="geometry">
            <Array as="points">
              <mxPoint x="630" y="385" />
              <mxPoint x="630" y="510" />
            </Array>
          </mxGeometry>
        </mxCell>
        <mxCell id="cCHqKQHDYc9K1tutN7BA-22" style="edgeStyle=orthogonalEdgeStyle;rounded=0;orthogonalLoop=1;jettySize=auto;html=1;entryX=1;entryY=0.5;entryDx=0;entryDy=0;exitX=0;exitY=0.5;exitDx=0;exitDy=0;endArrow=open;endFill=0;dashed=1;" edge="1" parent="1" source="cCHqKQHDYc9K1tutN7BA-17" target="cCHqKQHDYc9K1tutN7BA-13">
          <mxGeometry relative="1" as="geometry">
            <Array as="points">
              <mxPoint x="630" y="385" />
              <mxPoint x="630" y="213" />
            </Array>
          </mxGeometry>
        </mxCell>
        <mxCell id="cCHqKQHDYc9K1tutN7BA-17" value="Director" style="swimlane;fontStyle=1;align=center;verticalAlign=top;childLayout=stackLayout;horizontal=1;startSize=26;horizontalStack=0;resizeParent=1;resizeParentMax=0;resizeLast=0;collapsible=1;marginBottom=0;fontSize=12;" vertex="1" parent="1">
          <mxGeometry x="700" y="330" width="270" height="110" as="geometry">
            <mxRectangle x="-60" y="370" width="140" height="30" as="alternateBounds" />
          </mxGeometry>
        </mxCell>
        <mxCell id="cCHqKQHDYc9K1tutN7BA-18" value="- builder: ICharacterBuilder" style="text;strokeColor=none;fillColor=none;align=left;verticalAlign=top;spacingLeft=4;spacingRight=4;overflow=hidden;rotatable=0;points=[[0,0.5],[1,0.5]];portConstraint=eastwest;fontSize=12;" vertex="1" parent="cCHqKQHDYc9K1tutN7BA-17">
          <mxGeometry y="26" width="270" height="24" as="geometry" />
        </mxCell>
        <mxCell id="cCHqKQHDYc9K1tutN7BA-19" value="" style="line;strokeWidth=1;fillColor=none;align=left;verticalAlign=middle;spacingTop=-1;spacingLeft=3;spacingRight=3;rotatable=0;labelPosition=right;points=[];portConstraint=eastwest;strokeColor=inherit;fontSize=16;" vertex="1" parent="cCHqKQHDYc9K1tutN7BA-17">
          <mxGeometry y="50" width="270" height="8" as="geometry" />
        </mxCell>
        <mxCell id="cCHqKQHDYc9K1tutN7BA-20" value="+ SetBuilder(builder: ICharacterBuilder): void&#xa;+ CreateHero(): Character&#xa;+ CreateEnemy(): Character" style="text;strokeColor=none;fillColor=none;align=left;verticalAlign=top;spacingLeft=4;spacingRight=4;overflow=hidden;rotatable=0;points=[[0,0.5],[1,0.5]];portConstraint=eastwest;fontSize=12;" vertex="1" parent="cCHqKQHDYc9K1tutN7BA-17">
          <mxGeometry y="58" width="270" height="52" as="geometry" />
        </mxCell>
      </root>
    </mxGraphModel>
  </diagram>
</mxfile>
